<?xml version="1.0" standalone="no"?>
<!DOCTYPE svg PUBLIC "-//W3C//DTD SVG 20010904//EN"
 "http://www.w3.org/TR/2001/REC-SVG-20010904/DTD/svg10.dtd">
<svg version="1.0" xmlns="http://www.w3.org/2000/svg"
 width="" height="48" viewBox="0 0 401.000000 306.000000"
 preserveAspectRatio="xMidYMid meet">

<g transform="translate(0.000000,306.000000) scale(0.100000,-0.100000)"
fill="#000000" stroke="none">
<path d="M1240 3001 l-525 -6 469 -7 c557 -9 1538 -8 1791 1 134 6 49 8 -336
9 -284 1 -596 4 -695 5 -98 2 -415 1 -704 -2z"/>
<path d="M1993 2759 c136 -7 168 -12 156 -23 -2 -3 -77 -6 -167 -8 -135 -2
-162 -1 -162 11 0 8 -3 11 -7 8 -3 -4 -1 -17 5 -30 7 -12 16 -40 21 -62 l9
-40 1 48 1 47 141 0 140 0 -3 -42 -3 -43 -50 -6 -50 -6 58 -1 57 -2 0 49 c0
35 4 51 16 55 9 3 14 15 12 28 -3 23 -5 23 -163 24 l-160 1 148 -8z"/>
<path d="M1420 2605 l0 -55 -362 -3 -363 -2 363 -3 362 -2 0 -150 0 -150 -332
-1 c-315 -2 -325 -2 -178 -11 85 -5 235 -7 333 -4 l177 6 0 -98 c0 -53 -3
-148 -7 -209 l-6 -113 -351 -1 c-276 -1 -331 -4 -256 -11 52 -5 211 -7 353 -6
l257 3 6 -30 c3 -17 4 -52 2 -78 l-3 -48 -245 -1 c-135 0 -285 -3 -335 -7 -62
-6 13 -8 248 -9 l337 -2 0 -205 0 -205 -312 -1 c-244 -1 -297 -4 -243 -11 39
-5 179 -8 313 -6 l242 4 0 -23 c0 -21 -5 -23 -48 -23 -59 0 -261 -26 -359 -45
-131 -27 -328 -83 -320 -91 3 -3 27 2 54 11 26 9 84 25 128 36 256 62 404 79
688 79 l228 0 -6 -22 c-11 -37 -56 -79 -110 -103 l-50 -23 295 1 c285 0 289 1
115 7 -99 4 -213 8 -253 9 -46 1 -71 5 -67 11 4 6 100 11 248 12 l242 3 -223
2 c-152 2 -222 7 -220 14 2 7 77 10 221 10 215 0 218 -1 250 -25 28 -21 107
-51 107 -40 0 2 -23 13 -50 25 -54 23 -100 69 -100 100 0 18 10 19 223 19 309
0 570 -36 796 -110 35 -12 65 -19 68 -16 5 5 -127 46 -247 75 -103 25 -354 61
-428 61 l-55 0 6 167 c4 91 7 197 7 235 l0 68 338 1 c265 1 317 4 242 11 -52
4 -204 7 -338 6 l-242 -3 0 80 0 80 267 -3 c148 -2 311 1 363 6 75 7 19 10
-267 11 l-363 1 0 210 0 210 183 -5 c100 -3 254 -2 342 3 151 8 141 9 -181 10
l-341 2 -6 113 c-4 61 -7 156 -7 210 l0 97 -197 -2 -198 -3 193 -2 192 -3 0
-752 0 -751 -77 7 c-42 3 -96 6 -120 6 l-43 0 0 280 0 281 47 20 c36 15 44 22
33 29 -8 6 -30 10 -47 10 l-33 0 -3 183 -2 182 -3 -182 c-3 -224 -20 -249 -25
-35 l-3 147 -4 -150 -4 -150 -6 205 -6 205 -2 -202 -2 -203 -30 0 -30 0 2 208
3 207 57 29 c32 16 55 33 52 37 -3 5 -121 8 -262 7 l-257 -2 185 -6 185 -6
-165 -4 c-91 -3 -190 -5 -222 -5 -31 0 -54 -3 -51 -7 2 -5 9 -8 15 -8 5 0 23
-9 39 -21 l30 -21 -3 -209 c-2 -115 0 -209 5 -209 4 0 7 95 7 210 l0 210 186
0 186 0 -6 -117 c-3 -65 -8 -151 -12 -190 -6 -72 -7 -73 -35 -73 -46 0 -34
-20 14 -22 23 -1 -1 -5 -53 -8 l-95 -6 95 -4 c67 -3 30 -6 -130 -10 l-225 -6
282 0 c304 1 332 -4 252 -44 -36 -19 -57 -21 -271 -20 l-232 1 -44 30 c-25 17
-59 32 -76 35 -30 5 -30 4 7 -12 l37 -16 0 -284 0 -284 -42 0 c-24 0 -80 -3
-125 -7 l-83 -6 0 751 0 752 193 3 192 2 -197 3 -198 2 0 -55z m813 -362 c-13
-2 -35 -2 -50 0 -16 2 -5 4 22 4 28 0 40 -2 28 -4z m-98 -10 c68 -5 76 -8 60
-20 -28 -20 -398 -19 -415 1 -10 13 -3 15 42 19 101 7 235 7 313 0z m208 -480
c-7 -2 -21 -2 -30 0 -10 3 -4 5 12 5 17 0 24 -2 18 -5z m-646 -455 c-1 -79 -3
-17 -3 137 0 154 2 218 3 143 2 -75 2 -201 0 -280z m593 137 c0 -177 -4 -275
-10 -275 -6 0 -10 96 -10 268 0 237 3 282 17 282 2 0 3 -124 3 -275z m-568
-38 c2 -130 0 -237 -4 -237 -5 0 -7 123 -6 273 2 318 6 302 10 -36z m535 -110
c-1 -73 -3 -10 -3 138 0 149 2 208 3 132 2 -76 2 -198 0 -270z m-469 130 c2
-224 0 -257 -13 -257 -13 0 -15 34 -15 261 0 204 3 260 13 257 9 -4 13 -67 15
-261z m380 2 l2 -256 -91 -6 c-114 -9 -227 -9 -256 -1 l-23 6 0 259 0 259 183
-2 182 -3 3 -256z m42 250 c0 -8 5 -8 15 1 13 11 15 -18 15 -249 l0 -261 -30
0 -30 0 0 260 c0 224 2 260 15 260 8 0 15 -5 15 -11z m-463 -386 c-1 -65 -3
-14 -3 112 0 127 2 180 3 118 2 -62 2 -165 0 -230z m420 -158 c2 -7 -60 -12
-182 -14 -170 -2 -199 2 -178 23 11 11 356 2 360 -9z m20 -40 c2 -7 -67 -9
-197 -7 -122 2 -200 7 -200 13 0 13 392 7 397 -6z"/>
<path d="M2743 2543 c104 -2 270 -2 370 0 100 1 16 2 -188 2 -203 0 -285 -1
-182 -2z"/>
<path d="M1702 2416 c-1 -64 3 -86 14 -90 11 -4 14 5 14 39 l0 45 50 0 50 0 0
-46 c0 -31 4 -44 12 -42 18 6 20 178 2 178 -9 0 -14 -12 -14 -35 l0 -35 -50 0
-50 0 0 35 c0 23 -5 35 -14 35 -11 0 -14 -18 -14 -84z"/>
<path d="M1920 2446 c0 -102 29 -137 101 -121 40 9 49 32 48 112 l-2 68 -7
-73 c-7 -78 -13 -90 -50 -97 -43 -8 -60 20 -60 97 0 54 -3 68 -15 68 -11 0
-15 -13 -15 -54z"/>
<path d="M2130 2492 c0 -5 7 -27 16 -48 35 -88 56 -126 63 -118 20 22 78 174
67 174 -7 0 -23 -31 -36 -70 -13 -38 -26 -70 -29 -70 -4 0 -18 30 -32 67 -23
58 -49 94 -49 65z"/>
<path d="M1880 2330 c0 -5 5 -10 10 -10 6 0 10 5 10 10 0 6 -4 10 -10 10 -5 0
-10 -4 -10 -10z"/>
<path d="M2100 2330 c0 -5 5 -10 10 -10 6 0 10 5 10 10 0 6 -4 10 -10 10 -5 0
-10 -4 -10 -10z"/>
<path d="M1722 1993 c-2 -217 -1 -223 18 -223 19 0 20 6 18 183 l-2 182 -5
-175 -5 -175 -11 215 -12 215 -1 -222z"/>
<path d="M1682 1973 c-2 -175 0 -203 13 -203 13 0 15 27 13 193 l-3 192 -5
-190 -5 -190 -5 200 -6 200 -2 -202z"/>
<path d="M1970 1960 l0 -150 -30 0 c-16 0 -30 -4 -30 -10 0 -5 16 -10 35 -10
l35 0 0 160 c0 88 -2 160 -5 160 -3 0 -5 -67 -5 -150z"/>
<path d="M2692 1978 c-1 -75 1 -139 6 -142 4 -2 32 -1 62 4 l55 8 -52 1 c-43
1 -53 4 -54 19 -1 9 -5 69 -9 132 l-7 115 -1 -137z"/>
<path d="M2062 1953 l-2 -143 -30 0 c-16 0 -30 -4 -30 -10 0 -15 60 -12 66 3
2 7 3 76 1 152 l-3 140 -2 -142z"/>
<path d="M1292 2020 c-1 -36 -5 -89 -8 -117 l-7 -53 -51 -1 -51 -1 54 -9 c30
-5 58 -6 63 -1 5 5 7 62 5 128 -1 65 -4 90 -5 54z"/>
<path d="M880 1947 l0 -97 -57 -1 -58 -1 59 -9 c45 -7 62 -6 68 4 7 11 0 187
-8 196 -2 2 -4 -39 -4 -92z"/>
<path d="M3098 1990 c-12 -85 -10 -150 5 -155 6 -2 37 0 67 4 l55 9 -57 1 -57
1 -3 98 c-3 91 -3 93 -10 42z"/>
<path d="M1088 2001 c-5 -18 -8 -60 -8 -92 l0 -59 -57 -1 -58 -2 60 -7 c33 -5
64 -5 68 -1 4 4 6 50 5 102 -2 70 -5 85 -10 60z"/>
<path d="M2891 1937 c-1 -70 3 -99 12 -102 6 -2 37 0 67 4 l55 9 -57 1 -58 1
-1 43 c0 23 -4 65 -9 92 -6 44 -7 38 -9 -48z"/>
<path d="M1878 1907 c-5 -10 -8 -36 -8 -58 0 -35 -3 -39 -25 -39 -14 0 -25 -4
-25 -10 0 -15 60 -12 66 4 8 22 0 124 -8 103z"/>
<path d="M2211 1814 c0 -11 3 -14 6 -6 3 7 2 16 -1 19 -3 4 -6 -2 -5 -13z"/>
<path d="M2694 1375 l1 -140 80 -1 80 -2 -67 7 c-38 4 -71 10 -74 14 -4 3 -10
64 -14 134 l-7 128 1 -140z"/>
<path d="M1288 1377 c-3 -66 -9 -121 -12 -125 -3 -3 -36 -9 -74 -12 l-67 -7
78 -2 c56 -1 79 3 83 12 2 7 3 67 2 133 l-3 119 -7 -118z"/>
<path d="M881 1348 l-1 -97 -42 -5 c-24 -3 -59 -7 -78 -9 -19 -2 2 -5 47 -5
98 -2 98 -3 84 128 l-8 85 -2 -97z"/>
<path d="M3097 1370 c-5 -41 -7 -88 -5 -105 l3 -30 85 -1 c47 -1 65 1 40 3
-25 1 -59 5 -77 8 l-32 6 -3 97 -3 97 -8 -75z"/>
<path d="M1088 1410 c-4 -14 -8 -55 -8 -92 l0 -67 -32 -5 c-18 -3 -51 -7 -73
-9 -22 -2 -5 -4 38 -5 57 -2 79 2 83 11 3 8 4 54 2 103 -2 58 -6 80 -10 64z"/>
<path d="M2894 1335 l1 -100 80 -1 c44 -1 62 1 40 3 -103 9 -105 10 -106 56 0
23 -4 65 -9 92 -6 41 -7 32 -6 -50z"/>
<path d="M2615 1200 c64 -10 453 -10 525 0 32 4 -74 7 -260 7 -186 0 -295 -3
-265 -7z"/>
<path d="M650 1000 c-8 -5 -10 -10 -5 -10 6 0 17 5 25 10 8 5 11 10 5 10 -5 0
-17 -5 -25 -10z"/>
<path d="M80 630 c0 -91 3 -110 15 -110 12 0 15 13 15 55 l0 55 65 0 65 0 0
-55 c0 -42 3 -55 15 -55 12 0 15 19 15 110 0 91 -3 110 -15 110 -11 0 -15 -12
-15 -44 0 -43 0 -44 -40 -50 -22 -3 -52 -3 -65 0 -22 5 -25 12 -25 50 0 32 -4
44 -15 44 -12 0 -15 -19 -15 -110z"/>
<path d="M351 714 c-33 -27 -48 -76 -37 -120 9 -35 54 -74 85 -74 25 1 25 1
-6 15 -85 37 -55 195 38 195 92 0 121 -158 35 -196 l-31 -13 27 -1 c46 0 80
38 86 98 4 49 2 54 -31 87 -31 31 -41 35 -85 35 -40 0 -57 -6 -81 -26z"/>
<path d="M612 733 c-21 -8 -34 -51 -22 -74 6 -10 29 -28 51 -39 36 -19 40 -25
37 -53 -2 -27 -8 -33 -31 -35 -17 -2 -37 4 -48 14 -17 15 -19 15 -19 1 0 -22
15 -29 58 -29 41 0 72 29 72 67 0 22 -19 40 -75 71 -25 14 -26 53 -3 68 13 8
23 8 39 -2 22 -14 35 -10 24 7 -6 11 -59 14 -83 4z"/>
<path d="M751 630 c0 -99 2 -110 18 -110 16 0 17 7 13 50 l-5 50 35 0 c49 0
78 24 78 65 0 42 -20 55 -89 55 l-50 0 0 -110z m83 90 c20 -7 26 -17 26 -38 0
-36 -16 -52 -52 -52 -27 0 -28 2 -28 50 0 54 6 59 54 40z"/>
<path d="M930 630 c0 -91 3 -110 15 -110 12 0 15 19 15 110 0 91 -3 110 -15
110 -12 0 -15 -19 -15 -110z"/>
<path d="M1000 730 c0 -5 13 -10 30 -10 38 0 45 -25 36 -126 -6 -70 -6 -74 13
-74 19 0 20 5 14 100 l-6 100 36 0 c21 0 37 5 37 10 0 6 -33 10 -80 10 -47 0
-80 -4 -80 -10z"/>
<path d="M1229 694 c-12 -27 -34 -77 -50 -111 -19 -43 -24 -63 -15 -63 7 0 18
18 25 40 11 39 13 40 55 40 42 0 45 -2 60 -40 9 -22 23 -40 31 -40 8 0 15 2
15 4 0 6 -90 209 -95 214 -3 3 -14 -17 -26 -44z m39 -46 c11 -27 11 -28 -23
-28 l-35 0 17 35 c18 37 22 36 41 -7z"/>
<path d="M1390 630 l0 -110 61 0 c38 0 58 4 54 10 -4 6 -23 7 -46 4 l-39 -7 0
107 c0 88 -3 106 -15 106 -12 0 -15 -19 -15 -110z"/>
<path d="M1640 652 c0 -117 11 -134 87 -130 76 4 91 25 95 136 2 52 -1 82 -7
82 -7 0 -11 -31 -11 -79 0 -97 -17 -131 -68 -131 -55 0 -71 28 -71 126 0 61
-3 84 -12 84 -10 0 -13 -24 -13 -88z"/>
<path d="M1890 650 c-1 -52 -3 -103 -5 -112 -2 -10 3 -18 11 -18 11 0 14 18
14 83 l1 82 79 -85 79 -85 1 90 c0 50 3 100 6 113 4 15 2 22 -7 22 -11 0 -13
-17 -11 -80 2 -44 1 -80 -3 -80 -3 0 -42 37 -85 83 l-79 82 -1 -95z"/>
<path d="M2134 724 c3 -9 6 -58 6 -110 0 -56 4 -94 10 -94 6 0 10 43 10 110 0
94 -2 110 -16 110 -11 0 -14 -5 -10 -16z"/>
<path d="M2201 733 c3 -31 87 -208 98 -208 8 0 32 43 57 104 49 116 48 114 32
109 -6 -2 -25 -41 -42 -86 -17 -44 -35 -82 -41 -84 -5 -2 -23 36 -40 84 -22
65 -34 88 -47 88 -10 0 -18 -3 -17 -7z"/>
<path d="M2435 630 l0 -110 58 0 c32 0 57 4 57 10 0 6 -15 8 -40 4 l-40 -7 0
51 0 51 35 -6 c23 -4 35 -2 35 6 0 6 -15 11 -34 11 -37 0 -47 13 -39 53 5 24
10 27 44 27 22 0 39 5 39 10 0 6 -26 10 -57 10 l-58 0 0 -110z"/>
<path d="M2600 630 c0 -91 3 -110 15 -110 11 0 15 13 15 53 l1 52 27 -30 c15
-17 35 -41 44 -54 9 -12 24 -21 33 -19 14 2 9 13 -25 56 -28 35 -37 52 -27 52
16 0 57 45 57 61 0 5 -9 18 -20 29 -15 15 -33 20 -70 20 l-50 0 0 -110z m90
82 c29 -24 20 -57 -20 -70 -36 -13 -40 -8 -40 45 0 35 3 43 19 43 10 0 29 -8
41 -18z"/>
<path d="M2800 720 c-38 -38 -20 -77 46 -105 25 -10 34 -20 34 -37 0 -46 -46
-64 -82 -31 -16 15 -18 15 -18 0 0 -9 7 -20 16 -25 22 -13 85 3 101 24 28 38
10 71 -55 106 -33 18 -41 45 -20 66 17 17 45 15 56 -4 6 -11 11 -13 16 -5 22
34 -61 44 -94 11z"/>
<path d="M2950 630 c0 -91 3 -110 15 -110 12 0 15 19 15 110 0 91 -3 110 -15
110 -12 0 -15 -19 -15 -110z"/>
<path d="M3020 730 c0 -5 16 -10 35 -10 l35 0 0 -100 c0 -60 4 -100 10 -100 6
0 10 40 10 100 l0 100 35 0 c19 0 35 5 35 10 0 6 -33 10 -80 10 -47 0 -80 -4
-80 -10z"/>
<path d="M3257 710 c-9 -19 -31 -70 -51 -112 -23 -52 -31 -78 -22 -78 7 0 19
18 26 40 13 38 15 40 55 40 40 0 43 -2 58 -40 9 -23 22 -40 31 -40 9 0 16 1
16 3 0 6 -77 183 -88 202 -10 19 -12 17 -25 -15z m31 -60 c11 -29 10 -30 -19
-30 -32 0 -35 7 -18 44 14 30 23 27 37 -14z"/>
<path d="M3410 630 c0 -91 3 -110 15 -110 11 0 15 12 15 50 0 28 4 50 8 50 4
0 25 -22 45 -50 21 -27 44 -50 52 -50 22 0 19 7 -20 53 -19 22 -35 44 -35 47
0 4 11 12 25 18 13 6 28 23 31 38 10 39 -24 64 -87 64 l-49 0 0 -110z m90 82
c29 -24 20 -57 -20 -70 -35 -13 -40 -8 -40 38 0 55 19 65 60 32z"/>
<path d="M3600 630 c0 -91 3 -110 15 -110 12 0 15 19 15 110 0 91 -3 110 -15
110 -12 0 -15 -19 -15 -110z"/>
<path d="M3735 729 c-38 -22 -55 -52 -55 -102 0 -40 5 -53 29 -78 20 -20 39
-29 58 -28 22 1 23 3 7 6 -45 9 -75 77 -60 137 16 65 95 88 141 41 48 -48 22
-175 -36 -175 -10 0 -19 -4 -19 -8 0 -17 60 1 84 24 42 43 40 129 -4 169 -24
22 -116 31 -145 14z"/>
<path d="M1260 329 l0 -111 71 4 c65 3 74 6 100 36 22 24 29 42 29 72 0 84
-32 110 -135 110 l-65 0 0 -111z m150 75 c10 -10 15 -34 15 -69 0 -69 -23 -95
-89 -102 l-46 -6 0 96 c0 82 2 96 18 100 27 8 86 -3 102 -19z"/>
<path d="M1510 330 l0 -110 55 0 c30 0 55 5 55 10 0 6 -18 10 -40 10 l-40 0 0
45 c0 45 0 45 35 45 19 0 35 4 35 9 0 6 -16 7 -35 4 l-35 -6 0 42 0 41 40 0
c22 0 40 5 40 10 0 6 -25 10 -55 10 l-55 0 0 -110z"/>
<path d="M1670 330 l0 -110 55 0 c30 0 55 5 55 10 0 6 -18 10 -40 10 l-40 0 0
100 c0 82 -3 100 -15 100 -12 0 -15 -19 -15 -110z"/>
<path d="M1870 434 c0 -22 85 -214 94 -214 7 0 31 47 54 104 45 110 47 116 33
116 -4 0 -23 -38 -41 -85 -18 -47 -36 -85 -40 -85 -4 0 -22 38 -40 85 -19 49
-39 85 -46 85 -8 0 -14 -3 -14 -6z"/>
<path d="M2120 358 c-19 -44 -41 -94 -48 -109 -8 -19 -8 -29 -2 -29 6 0 19 20
30 45 18 42 22 45 58 45 37 0 40 -2 52 -41 13 -37 33 -59 45 -47 6 6 -81 212
-92 215 -4 2 -24 -34 -43 -79z m44 -36 c-35 -5 -38 1 -23 45 l12 38 18 -40 18
-40 -25 -3z"/>
<path d="M2300 330 l0 -110 55 0 c30 0 55 5 55 10 0 6 -18 10 -40 10 l-40 0 0
100 c0 82 -3 100 -15 100 -12 0 -15 -19 -15 -110z"/>
<path d="M2460 330 l0 -110 55 0 c30 0 55 5 55 10 0 6 -18 10 -40 10 l-40 0 0
100 c0 82 -3 100 -15 100 -12 0 -15 -19 -15 -110z"/>
<path d="M2620 330 l0 -110 55 0 c30 0 55 5 55 10 0 6 -19 10 -42 10 l-43 0 0
43 c0 41 1 42 38 45 48 4 49 22 0 19 -30 -2 -37 1 -37 16 4 59 2 57 44 57 22
0 40 5 40 10 0 6 -25 10 -55 10 l-55 0 0 -110z"/>
<path d="M1270 105 l0 -55 33 1 c30 2 30 2 5 6 -26 4 -28 8 -28 48 0 37 3 44
23 48 19 4 18 4 -5 6 -27 1 -28 0 -28 -54z"/>
<path d="M1938 153 c6 -2 18 -2 25 0 6 3 1 5 -13 5 -14 0 -19 -2 -12 -5z"/>
<path d="M2400 105 l0 -55 33 1 c30 2 30 2 5 6 -26 4 -28 8 -28 48 0 37 3 44
23 48 19 4 18 4 -5 6 -27 1 -28 0 -28 -54z"/>
<path d="M2533 143 c-4 -11 3 -23 20 -37 34 -28 34 -43 0 -49 -27 -5 -27 -5 2
-3 41 2 49 41 11 56 -32 12 -34 37 -3 43 l22 4 -23 2 c-13 0 -25 -6 -29 -16z"/>
<path d="M2683 153 c9 -2 23 -2 30 0 6 3 -1 5 -18 5 -16 0 -22 -2 -12 -5z"/>
<path d="M1901 128 c-9 -24 -4 -55 10 -64 5 -3 5 5 0 18 -5 13 -5 33 0 46 5
12 6 22 3 22 -2 0 -8 -10 -13 -22z"/>
<path d="M1453 123 c9 -2 23 -2 30 0 6 3 -1 5 -18 5 -16 0 -22 -2 -12 -5z"/>
<path d="M1526 119 c4 -7 44 0 44 7 0 2 -11 3 -24 2 -14 -1 -23 -5 -20 -9z"/>
<path d="M1593 95 c0 -22 2 -30 4 -17 2 12 2 30 0 40 -3 9 -5 -1 -4 -23z"/>
<path d="M1627 123 c-4 -3 -7 -11 -7 -17 0 -7 3 -7 8 0 4 7 16 14 27 17 19 5
19 5 -1 6 -11 0 -24 -2 -27 -6z"/>
<path d="M1703 123 c9 -2 23 -2 30 0 6 3 -1 5 -18 5 -16 0 -22 -2 -12 -5z"/>
<path d="M1807 123 c6 -4 13 -22 16 -38 4 -27 5 -27 3 4 0 21 -7 36 -16 38
-10 3 -11 2 -3 -4z"/>
<path d="M2027 123 c17 -3 23 -13 26 -41 l4 -37 1 43 c2 40 1 42 -25 41 -23
-1 -24 -2 -6 -6z"/>
<path d="M2093 90 c0 -25 2 -35 4 -22 2 12 2 32 0 45 -2 12 -4 2 -4 -23z"/>
<path d="M2118 123 c7 -3 16 -2 19 1 4 3 -2 6 -13 5 -11 0 -14 -3 -6 -6z"/>
<path d="M2178 123 c7 -3 16 -2 19 1 4 3 -2 6 -13 5 -11 0 -14 -3 -6 -6z"/>
<path d="M2233 90 c0 -25 2 -35 4 -22 2 12 2 32 0 45 -2 12 -4 2 -4 -23z"/>
<path d="M2301 124 c10 -3 16 -17 17 -35 0 -17 4 -34 7 -37 4 -4 5 11 3 33 -2
31 -7 40 -23 42 -13 1 -14 0 -4 -3z"/>
<path d="M2672 88 c-2 -37 -1 -38 31 -37 29 2 29 2 5 6 -22 3 -28 10 -31 36
-4 31 -4 31 -5 -5z"/>
<path d="M1366 90 c3 -14 8 -27 10 -29 6 -6 24 10 23 22 0 7 -3 6 -6 -2 -4
-10 -9 -8 -20 10 l-14 24 7 -25z"/>
<path d="M1761 95 c-1 -25 17 -45 39 -44 10 0 9 3 -5 8 -11 4 -23 19 -26 32
-6 21 -7 21 -8 4z"/>
<path d="M2151 95 c-1 -27 17 -45 44 -44 17 1 16 2 -5 8 -14 4 -27 17 -31 31
-6 21 -7 22 -8 5z"/>
<path d="M1647 89 c7 -7 15 -10 18 -7 3 3 -2 9 -12 12 -14 6 -15 5 -6 -5z"/>
<path d="M1971 83 c-1 -14 -9 -23 -23 -26 l-23 -4 23 -2 c24 -1 38 19 29 41
-3 7 -6 3 -6 -9z"/>
<path d="M2005 80 c-9 -15 4 -30 23 -29 15 1 14 2 -1 6 -11 3 -16 11 -13 19 6
16 0 19 -9 4z"/>
<path d="M2271 73 c-1 -16 5 -23 17 -23 10 0 13 3 6 8 -6 4 -14 14 -17 22 -4
10 -6 8 -6 -7z"/>
<path d="M1491 64 c0 -11 3 -14 6 -6 3 7 2 16 -1 19 -3 4 -6 -2 -5 -13z"/>
<path d="M1440 60 c0 -6 7 -10 15 -10 8 0 15 2 15 4 0 2 -7 6 -15 10 -8 3 -15
1 -15 -4z"/>
<path d="M1710 60 c0 -6 7 -10 15 -10 8 0 15 2 15 4 0 2 -7 6 -15 10 -8 3 -15
1 -15 -4z"/>
<path d="M2755 60 c3 -5 8 -10 11 -10 2 0 4 5 4 10 0 6 -5 10 -11 10 -5 0 -7
-4 -4 -10z"/>
<path d="M1628 53 c6 -2 18 -2 25 0 6 3 1 5 -13 5 -14 0 -19 -2 -12 -5z"/>
</g>
</svg>
